HIERARCHY
ROOT Hips
{
	OFFSET 52.003300 -5.574649 56.171600
	CHANNELS 6 Xposition Yposition Zposition Xrotation Yrotation Zrotation
	JOINT spine
	{
		OFFSET 0.000000 -0.367607 6.392601
		CHANNELS 3 Xrotation Yrotation Zrotation
		JOINT spine1
		{
			OFFSET 0.000000 -0.000002 9.176109
			CHANNELS 3 Xrotation Yrotation Zrotation
			JOINT spine2
			{
				OFFSET 0.000000 -0.000001 8.792381
				CHANNELS 3 Xrotation Yrotation Zrotation
				JOINT Neck
				{
					OFFSET 0.000000 -1.076243 22.573700
					CHANNELS 3 Xrotation Yrotation Zrotation
					JOINT Head
					{
						OFFSET 0.000000 -0.000001 6.820107
						CHANNELS 3 Xrotation Yrotation Zrotation
						End Site
						{
							OFFSET 0.000000 5.444258 16.508499
						}
					}
				}
				JOINT RightShoulder
				{
					OFFSET -3.702209 0.515507 9.495087
					CHANNELS 3 Xrotation Yrotation Zrotation
					JOINT RightArm
					{
						OFFSET 0.000000 -0.000002 12.453697
						CHANNELS 3 Xrotation Yrotation Zrotation
						JOINT RightArmRoll
						{
							OFFSET 0.000000 -0.000001 6.286850
							CHANNELS 3 Xrotation Yrotation Zrotation
							JOINT RightForeArm
							{
								OFFSET 0.000000 -0.000003 18.311401
								CHANNELS 3 Xrotation Yrotation Zrotation
								JOINT RightForeArmRoll
								{
									OFFSET 0.000000 -0.000001 7.054825
									CHANNELS 3 Xrotation Yrotation Zrotation
									JOINT RightHand
									{
										OFFSET 0.000000 -0.000002 14.157501
										CHANNELS 3 Xrotation Yrotation Zrotation
										End Site
										{
											OFFSET 0.000000 0.000000 0.100006
										}
									}
								}
							}
						}
					}
				}
				JOINT LeftShoulder
				{
					OFFSET 3.702209 0.515507 9.495087
					CHANNELS 3 Xrotation Yrotation Zrotation
					JOINT LeftArm
					{
						OFFSET 0.000000 -0.000002 12.453697
						CHANNELS 3 Xrotation Yrotation Zrotation
						JOINT LeftArmRoll
						{
							OFFSET 0.000000 -0.000001 6.286858
							CHANNELS 3 Xrotation Yrotation Zrotation
							JOINT LeftForeArm
							{
								OFFSET 0.000000 -0.000003 18.311401
								CHANNELS 3 Xrotation Yrotation Zrotation
								JOINT LeftForeArmRoll
								{
									OFFSET 0.000000 -0.000001 7.054832
									CHANNELS 3 Xrotation Yrotation Zrotation
									JOINT LeftHand
									{
										OFFSET 0.000000 -0.000002 14.157501
										CHANNELS 3 Xrotation Yrotation Zrotation
										End Site
										{
											OFFSET 0.000000 0.000000 0.100006
										}
									}
								}
							}
						}
					}
				}
			}
		}
	}
	JOINT RightUpLeg
	{
		OFFSET -5.666161 0.871610 -1.039028
		CHANNELS 3 Xrotation Yrotation Zrotation
		JOINT RightUpLegRoll
		{
			OFFSET 0.000000 -0.000003 16.600498
			CHANNELS 3 Xrotation Yrotation Zrotation
			JOINT RightLeg
			{
				OFFSET 0.000000 0.000004 -20.557198
				CHANNELS 3 Xrotation Yrotation Zrotation
				JOINT RightLegRoll
				{
					OFFSET 0.000000 -0.000004 20.624397
					CHANNELS 3 Xrotation Yrotation Zrotation
					JOINT RightFoot
					{
						OFFSET 0.000000 -0.000002 17.166405
						CHANNELS 3 Xrotation Yrotation Zrotation
						JOINT RightToeBase
						{
							OFFSET 0.000000 -0.000002 14.350197
							CHANNELS 3 Xrotation Yrotation Zrotation
							End Site
							{
								OFFSET 0.006081 0.801059 6.949707
							}
						}
					}
				}
			}
		}
	}
	JOINT LeftUpLeg
	{
		OFFSET 5.666161 0.871610 -1.039028
		CHANNELS 3 Xrotation Yrotation Zrotation
		JOINT LeftUpLegRoll
		{
			OFFSET 0.000000 -0.000003 16.600597
			CHANNELS 3 Xrotation Yrotation Zrotation
			JOINT LeftLeg
			{
				OFFSET 0.000000 -0.000003 20.557098
				CHANNELS 3 Xrotation Yrotation Zrotation
				JOINT LeftLegRoll
				{
					OFFSET 0.000000 -0.000003 20.815102
					CHANNELS 3 Xrotation Yrotation Zrotation
					JOINT LeftFoot
					{
						OFFSET 0.000000 -0.000002 16.975700
						CHANNELS 3 Xrotation Yrotation Zrotation
						JOINT LeftToeBase
						{
							OFFSET 0.000000 -0.000002 14.350204
							CHANNELS 3 Xrotation Yrotation Zrotation
							End Site
							{
								OFFSET -0.027260 0.801059 6.949707
							}
						}
					}
				}
			}
		}
	}
}
MOTION
Frames: 6
Frame Time: 0.041667
53.919201 -45.837116 85.882492 -3.972795 1.409506 -0.067318 -1.288489 0.092612 -0.297525 1.431416 0.174793 -0.596271 3.076463 0.167638 -0.598325 8.087954 -1.551273 0.950820 3.461089 0.341630 1.139338 -5.907741 -59.314865 -6.977887 -40.138939 -117.714649 -37.426329 -0.000002 -0.000001 -0.000003 6.821537 -15.548661 0.709086 -0.000008 0.000004 -3.000001 -5.000218 -7.998811 0.000180 -8.198392 53.546849 9.264266 -33.627231 119.207524 35.924527 -0.000000 0.000004 0.000008 6.327605 13.559685 -0.359872 -0.000008 -0.000015 3.000011 -5.000199 7.998733 -0.000189 2.425628 -177.535208 1.063686 179.999991 -0.000005 -1.065996 173.802237 -4.589137 -0.653811 0.000002 0.000002 0.066159 68.188948 6.861341 2.287796 25.456957 -7.355615 0.000001 3.648525 175.669761 0.417673 -0.000005 -0.000004 -1.159640 -6.517918 0.872043 0.516701 -0.000003 0.000002 -0.106267 70.183356 -6.861783 -2.126792 25.635616 7.354841 -0.266838 
53.919998 -45.830421 85.882690 -3.976005 1.407905 -0.069728 -1.287797 0.092459 -0.297832 1.432437 0.175432 -0.596780 3.077484 0.168272 -0.598842 8.100461 -1.549591 0.950454 3.451161 0.341154 1.138636 -5.895695 -59.318123 -6.963970 -40.145178 -117.704910 -37.428945 -0.000003 -0.000001 -0.000003 6.815307 -15.548559 0.709410 -0.000006 0.000004 -3.000001 -5.000221 -7.998811 0.000180 -8.201028 53.545162 9.267371 -33.624769 119.204600 35.918469 -0.000001 0.000004 0.000008 6.331604 13.557597 -0.359975 -0.000006 -0.000016 3.000011 -5.000195 7.998732 -0.000189 2.427025 -177.538214 1.058385 179.999991 -0.000005 -1.065996 173.801772 -4.581174 -0.653984 0.000003 0.000002 0.066171 68.188640 6.861351 2.287716 25.456957 -7.355614 0.000001 3.649469 175.671755 0.417810 -0.000005 -0.000004 -1.159700 -6.521269 0.872691 0.516823 -0.000003 0.000002 -0.106287 70.183752 -6.861727 -2.126957 25.635713 7.354847 -0.267016 
53.933296 -45.842323 85.877090 -3.979311 1.406223 -0.072303 -1.287100 0.092299 -0.298143 1.433457 0.176059 -0.597321 3.078513 0.168894 -0.599391 8.113706 -1.546847 0.950180 3.440229 0.339416 1.138006 -5.882855 -59.321108 -6.949095 -40.150198 -117.695948 -37.430144 -0.000005 0.000001 -0.000003 6.808867 -15.548360 0.709730 -0.000007 0.000004 -3.000001 -5.000217 -7.998811 0.000180 -8.204420 53.543619 9.271387 -33.621705 119.202606 35.911775 -0.000001 0.000003 0.000008 6.335682 13.555503 -0.360077 -0.000007 -0.000016 3.000011 -5.000198 7.998734 -0.000189 2.428541 -177.540208 1.054110 179.999991 -0.000005 -1.065996 173.801390 -4.574217 -0.654272 0.000002 0.000002 0.066188 68.188217 6.861353 2.287944 25.456959 -7.355615 0.000002 3.650866 175.672766 0.417783 -0.000005 -0.000004 -1.159760 -6.524041 0.873496 0.516930 -0.000003 0.000002 -0.106281 70.183663 -6.861756 -2.126869 25.635918 7.354843 -0.267286 
53.922195 -45.841923 85.879990 -3.982679 1.404482 -0.074994 -1.286389 0.092135 -0.298455 1.434487 0.176677 -0.597883 3.079543 0.169506 -0.599961 8.127476 -1.543369 0.949972 3.428583 0.336795 1.137452 -5.869453 -59.323922 -6.933541 -40.156455 -117.686208 -37.432715 -0.000002 0.000001 -0.000003 6.802278 -15.548164 0.710049 -0.000004 0.000004 -3.000001 -5.000219 -7.998811 0.000180 -8.208316 53.542054 9.276030 -33.618775 119.200680 35.905297 -0.000001 0.000004 0.000008 6.339828 13.553509 -0.360204 -0.000009 -0.000015 3.000011 -5.000199 7.998732 -0.000189 2.430132 -177.541219 1.050566 179.999991 -0.000005 -1.065996 173.801076 -4.568252 -0.654649 0.000002 0.000002 0.066209 68.187910 6.861365 2.288166 25.456955 -7.355614 0.000002 3.652574 175.674774 0.417751 -0.000005 -0.000004 -1.159830 -6.526413 0.874410 0.517027 -0.000003 0.000002 -0.106258 70.183254 -6.861782 -2.126997 25.636118 7.354848 -0.267620 
53.925491 -45.838619 85.876495 -3.986096 1.402720 -0.077751 -1.285670 0.091968 -0.298769 1.435517 0.177289 -0.598459 3.080573 0.170114 -0.600544 8.141559 -1.539454 0.949797 3.416528 0.333669 1.136920 -5.855717 -59.326641 -6.917595 -40.161475 -117.677234 -37.433887 -0.000002 -0.000001 -0.000003 6.795609 -15.547869 0.710364 -0.000006 0.000004 -3.000001 -5.000218 -7.998811 0.000179 -8.212478 53.540463 9.281007 -33.615865 119.198754 35.898904 -0.000001 0.000005 0.000008 6.344004 13.551513 -0.360318 -0.000010 -0.000016 3.000011 -5.000200 7.998733 -0.000189 2.431770 -177.542216 1.047417 179.999991 -0.000005 -1.065996 173.800775 -4.563278 -0.655132 0.000002 0.000002 0.066232 68.187698 6.861347 2.288275 25.456959 -7.355613 0.000000 3.654458 175.676768 0.417679 -0.000005 -0.000004 -1.159900 -6.528554 0.875386 0.517119 -0.000004 0.000002 -0.106224 70.182728 -6.861802 -2.127034 25.636318 7.354846 -0.267980 
53.928299 -45.842823 85.880592 -3.989514 1.400948 -0.080523 -1.284949 0.091801 -0.299083 1.436557 0.177901 -0.599037 3.081604 0.170720 -0.601131 8.155698 -1.535450 0.949633 3.404387 0.330417 1.136394 -5.841921 -59.329373 -6.901571 -40.166512 -117.668259 -37.435058 -0.000003 -0.000001 -0.000003 6.788910 -15.547582 0.710682 -0.000006 0.000004 -3.000001 -5.000218 -7.998811 0.000180 -8.216744 53.538964 9.286106 -33.614141 119.196022 35.893815 0.000002 0.000005 0.000008 6.348183 13.549617 -0.360454 -0.000007 -0.000016 3.000011 -5.000196 7.998730 -0.000190 2.433421 -177.543213 1.044366 179.999991 -0.000005 -1.065996 173.800529 -4.557301 -0.654505 0.000002 0.000002 0.066256 68.187377 6.861359 2.288496 25.456957 -7.355614 0.000001 3.656393 175.678790 0.417598 -0.000005 -0.000004 -1.159970 -6.530636 0.876379 0.517209 -0.000004 0.000002 -0.106187 70.182209 -6.861824 -2.126969 25.636615 7.354845 -0.268367 
